<svg width="320" height="60" viewBox="0 0 320 60" fill="none" xmlns="http://www.w3.org/2000/svg">
<g clip-path="url(#clip0_587_217)">
<path d="M0.282132 46.8731H3.63636C4.35737 46.8731 4.45141 46.7782 4.45141 46.0508V13.9289C4.45141 13.2015 4.35737 13.1066 3.63636 13.1066H0.428422C0.240334 13.1066 0.135841 13.1066 0.135841 12.6744C0.135841 12.2422 0.229885 12.2422 0.428422 12.2422H14.3678C14.5559 12.2422 14.65 12.2422 14.65 12.6744C14.65 13.1066 14.5559 13.1066 14.3678 13.1066H11.1599C10.4389 13.1066 10.3448 13.2015 10.3448 13.9289V28.224L18.2445 21.0765C26.604 13.4862 25.3814 13.2964 20.4493 13.1066C20.2612 13.1066 20.1567 12.9591 20.1567 12.6744C20.1567 12.3898 20.2508 12.2422 20.4493 12.2422H32.278C32.466 12.2422 32.5601 12.2422 32.5601 12.6744C32.5601 13.1066 32.466 13.1066 32.1735 13.1066C28.8192 13.2964 28.0564 13.444 18.861 21.6563L14.5037 25.5674L29.791 46.0824C30.3657 46.8098 30.512 46.9047 31.2226 46.9047H33.9081C34.0961 46.9047 34.2006 46.9047 34.2006 47.3369C34.2006 47.7691 34.1066 47.7691 33.9081 47.7691H18.9133C18.7252 47.7691 18.6207 47.7691 18.6207 47.3369C18.6207 46.9047 18.7147 46.9047 18.9133 46.9047H22.7482C23.4692 46.9047 23.5632 46.8098 22.9885 46.0824L13.6991 33.6322C12.9363 32.5779 10.7315 29.5734 10.5643 29.1834H10.3448V46.0824C10.3448 46.8098 10.4389 46.9047 11.1599 46.9047H14.3678C14.5559 46.9047 14.65 46.9047 14.65 47.3369C14.65 47.7691 14.5559 47.7691 14.3678 47.7691H0.282132C0.0940439 47.7691 0 47.7691 0 47.3369C0 46.9047 0.0940439 46.8731 0.282132 46.8731Z" fill="white"/>
<path d="M44.9379 26.3906C50.3924 26.3906 53.4645 30.9764 53.4645 35.7099C53.4645 36.3424 53.2764 36.4794 52.7017 36.4794H39.9431V37.3439C39.9431 42.0351 40.7059 44.4493 42.1479 45.8936C43.1093 46.7896 44.3841 47.2746 45.6902 47.2429C48.825 47.2429 51.103 44.9237 52.4405 42.6571C52.5868 42.4147 53.2556 42.8047 53.1615 43.0472C51.6464 46.2309 48.4698 48.2761 44.9692 48.3182C39.3684 48.3182 34.8125 43.6797 34.8125 37.3544C34.8125 31.0292 39.5983 26.3906 44.9379 26.3906ZM41.8031 28.3725C40.267 29.9222 39.8386 32.484 39.8386 35.6677H47.9264C48.5952 35.6677 48.7832 35.6677 48.7832 35.1406C48.7832 31.2716 48.3966 29.4373 47.2054 28.2355C46.5157 27.5503 45.5857 27.1707 44.6244 27.1813C43.569 27.2024 42.5554 27.6346 41.8031 28.3725Z" fill="white"/>
<path d="M55.5321 46.8887H58.3117C59.0327 46.8887 59.1267 46.7938 59.1267 46.0664V13.0696C59.1267 12.3421 59.0327 12.2473 58.3117 12.2473H56.065C55.877 12.2473 55.7725 12.2473 55.7725 11.815C55.7725 11.3828 55.8665 11.3828 56.065 11.3828H63.0556C63.7766 11.3828 63.8707 11.4777 63.8707 12.2051V46.098C63.8707 46.8254 63.9647 46.9203 64.6857 46.9203H66.8696C67.0577 46.9203 67.1622 46.9203 67.1622 47.3525C67.1622 47.7848 67.0682 47.7848 66.8696 47.7848H55.5321C55.344 47.7848 55.25 47.7848 55.25 47.3525C55.25 46.9203 55.3754 46.8887 55.5321 46.8887Z" fill="white"/>
<path d="M69.0399 46.8887H71.8195C72.5405 46.8887 72.6345 46.7938 72.6345 46.0664V13.0696C72.6345 12.3421 72.5405 12.2473 71.8195 12.2473H69.5729C69.3848 12.2473 69.2803 12.2473 69.2803 11.815C69.2803 11.3828 69.3743 11.3828 69.5729 11.3828H76.5634C77.2845 11.3828 77.3785 11.4777 77.3785 12.2051V46.098C77.3785 46.8254 77.4725 46.9203 78.1935 46.9203H80.3984C80.5864 46.9203 80.6909 46.9203 80.6909 47.3525C80.6909 47.7848 80.5969 47.7848 80.3984 47.7848H69.0399C68.8519 47.7848 68.7578 47.7848 68.7578 47.3525C68.7578 46.9203 68.8519 46.8887 69.0399 46.8887Z" fill="white"/>
<path d="M93.4536 26.3906C98.9082 26.3906 101.98 30.9764 101.98 35.7099C101.98 36.3424 101.792 36.4794 101.217 36.4794H88.4275V37.3439C88.4275 42.0351 89.1903 44.4493 90.6323 45.8936C91.5936 46.7896 92.8684 47.2746 94.1746 47.2429C97.3094 47.2429 99.5874 44.9237 100.925 42.6571C101.071 42.4147 101.74 42.8047 101.646 43.0472C100.131 46.2309 96.9541 48.2761 93.4536 48.3182C87.8528 48.3182 83.2969 43.6797 83.2969 37.3544C83.2969 31.0292 88.0931 26.3906 93.4536 26.3906ZM90.3188 28.3725C88.7828 29.9222 88.3543 32.484 88.3543 35.6677H96.4421C97.1109 35.6677 97.299 35.6677 97.299 35.1406C97.299 31.2716 96.9123 29.4373 95.7211 28.2355C95.0315 27.5503 94.1015 27.1707 93.1401 27.1813C92.0952 27.2129 91.0921 27.6346 90.3397 28.3725H90.3188Z" fill="white"/>
<path d="M104.712 46.8834H107.251C107.972 46.8834 108.066 46.7885 108.066 46.0611V28.6666C108.066 27.9392 107.972 27.8443 107.251 27.8443H105.004C104.816 27.8443 104.712 27.8443 104.712 27.4121C104.712 26.9799 104.806 26.9799 105.004 26.9799H111.901C112.622 26.9799 112.716 27.0748 112.716 27.8022V28.0446C112.716 28.5296 112.622 30.4166 112.622 31.1335L112.768 31.2283C113.437 28.382 115.454 26.4001 118.181 26.4001C120.281 26.2525 122.099 27.8549 122.246 29.9738C122.246 30.0265 122.246 30.0687 122.246 30.1214C122.34 31.7344 121.117 33.1154 119.519 33.2103C118.484 33.2946 117.575 32.525 117.491 31.4814C117.491 31.4286 117.491 31.3865 117.491 31.3338C117.491 30.0265 118.306 29.5943 118.306 28.6772C118.348 28.0446 117.878 27.507 117.251 27.4648C117.209 27.4648 117.157 27.4648 117.115 27.4648C115.443 27.4648 113.427 29.5732 112.81 34.5175V46.0927C112.81 46.8201 112.904 46.915 113.625 46.915H116.446C116.634 46.915 116.739 46.915 116.739 47.3473C116.739 47.7795 116.645 47.7795 116.446 47.7795H104.712C104.524 47.7795 104.43 47.7795 104.43 47.3473C104.43 46.915 104.492 46.8834 104.712 46.8834Z" fill="white"/>
<path d="M135.163 0.757812H132.969V59.235H135.163V0.757812Z" fill="#20CE9C"/>
<path d="M160.369 32.5175C159.167 32.5175 157.537 32.3699 156.043 32.0853V46.3909C156.043 47.1184 156.137 47.2132 156.858 47.2132H160.609C160.797 47.2132 160.902 47.2659 160.902 47.6455C160.902 48.025 160.808 48.0777 160.609 48.0777H145.949C145.761 48.0777 145.656 48.025 145.656 47.6455C145.656 47.2659 145.75 47.2132 145.949 47.2132H149.314C150.035 47.2132 150.129 47.1184 150.129 46.3909V14.1321C150.129 13.4046 150.035 13.3098 149.314 13.3098H146.095C145.907 13.3098 145.803 13.2571 145.803 12.8775C145.803 12.498 145.897 12.4453 146.095 12.4453H160.609C169.408 12.4453 173.545 17.1049 173.545 22.4814C173.545 28.248 168.885 32.5175 160.379 32.5175H160.369ZM165.123 14.9649C164.016 13.8474 162.72 13.3203 160.609 13.3203H156.858C156.137 13.3203 156.043 13.4152 156.043 14.1426V31.1997C157.391 31.4949 159.167 31.632 160.369 31.632C162.532 31.632 164.026 31.0943 164.883 30.2299C166.273 28.8278 167.192 26.6877 167.192 22.4709C167.192 18.4965 166.471 16.3143 165.123 14.9543V14.9649Z" fill="white"/>
<path d="M184.403 48.6604C178.394 48.6604 173.828 44.0008 173.828 37.6544C173.828 31.3081 178.342 26.6484 184.403 26.6484C190.463 26.6484 194.978 31.2553 194.978 37.6544C194.978 44.0535 190.411 48.6604 184.403 48.6604ZM181.184 46.4782C182.052 47.3532 183.055 47.7854 184.403 47.7854C185.751 47.7854 186.754 47.3532 187.621 46.4782C189.063 45.0234 189.836 42.3562 189.836 37.6544C189.836 32.9526 189.063 30.2855 187.621 28.8307C186.754 27.9557 185.751 27.5234 184.403 27.5234C183.055 27.5234 182.052 27.9557 181.184 28.8307C179.742 30.2855 178.969 32.9526 178.969 37.6544C178.969 42.3562 179.742 45.0234 181.184 46.4782Z" fill="white"/>
<path d="M205.599 26.6434C208.19 26.6434 209.256 27.8557 210.113 27.8557C210.593 27.8557 210.781 27.6132 211.126 27.2232C211.272 27.0334 211.419 26.928 211.659 26.928C211.899 26.928 211.993 27.0756 211.993 27.3181V32.7472C211.993 32.8948 211.805 33.0424 211.565 33.0424C211.325 33.0424 211.178 32.9475 211.137 32.7472C210.269 29.1102 208.639 27.5078 205.609 27.5078C203.446 27.5078 202.192 28.815 202.192 30.7548C202.192 32.3045 203.206 33.8542 206.999 35.1192C211.711 36.6689 213.582 38.9987 213.582 42.0032C213.582 45.8827 210.844 48.6448 205.985 48.6448C202.913 48.6448 201.847 47.2848 200.363 47.2848C199.883 47.2848 199.548 47.5273 199.109 48.0649C198.963 48.2547 198.817 48.3601 198.577 48.3601C198.336 48.3601 198.242 48.2125 198.242 47.9701V40.4535C198.242 40.3059 198.388 40.1584 198.671 40.1584C199.005 40.1584 199.057 40.3059 199.099 40.4535C200.06 45.1553 202.276 47.7803 205.975 47.7803C208.806 47.7803 210.489 46.2306 210.489 43.9535C210.489 41.6764 209.193 40.2638 205.494 39.0514C201.074 37.5966 199.099 35.6042 199.099 32.3045C199.099 28.7202 202.129 26.6328 205.588 26.6328L205.599 26.6434Z" fill="white"/>
<path d="M215.972 27.2197H218.909V26.7874C218.909 26.5977 218.961 26.4501 219.097 26.2498C220.486 24.2573 221.5 22.3703 222.461 20.2829C222.702 19.798 222.796 19.7031 223.088 19.7031C223.475 19.7031 223.663 19.798 223.663 20.5254V27.2197H229.003C229.191 27.2197 229.295 27.2724 229.295 27.6519C229.295 28.0314 229.201 28.0841 229.003 28.0841H223.663V44.1398C223.663 46.2693 224.384 46.9967 225.68 46.9967C226.787 46.9967 227.989 46.1217 229.044 44.0871C229.191 43.7919 229.953 44.1398 229.818 44.4244C228.522 47.334 226.693 48.6413 224.29 48.6413C220.873 48.6413 218.909 46.459 218.909 42.0946V28.0736H215.972C215.784 28.0736 215.68 28.0209 215.68 27.6413C215.68 27.2618 215.774 27.2091 215.972 27.2091V27.2197Z" fill="white"/>
<path d="M232.092 47.2161H234.642C235.363 47.2161 235.457 47.1212 235.457 46.3938V28.9255C235.457 28.1981 235.363 28.1033 234.642 28.1033H232.719C232.531 28.1033 232.426 28.0505 232.426 27.671C232.426 27.2915 232.521 27.2388 232.719 27.2388H239.302C240.023 27.2388 240.117 27.3337 240.117 28.0611C240.117 28.7358 240.023 30.0535 239.971 30.8231L240.117 30.918C240.692 28.546 243.001 26.6484 246.031 26.6484C249.731 26.6484 251.946 28.1981 252.813 30.7704H253.001C253.868 28.4933 255.833 26.6484 259.062 26.6484C263.628 26.6484 266.564 29.168 266.564 34.1123V46.3833C266.564 47.1107 266.658 47.2056 267.379 47.2056H269.25C269.438 47.2056 269.542 47.2583 269.542 47.6378C269.542 48.0173 269.448 48.07 269.25 48.07H258.675C258.487 48.07 258.383 48.0173 258.383 47.6378C258.383 47.2583 258.477 47.2056 258.675 47.2056H260.984C261.705 47.2056 261.799 47.1107 261.799 46.3833V33.5324C261.799 29.8005 260.598 27.7132 257.808 27.7132C255.739 27.7132 253.388 29.8427 253.388 32.9948V46.3833C253.388 47.1107 253.482 47.2056 254.203 47.2056H256.126C256.314 47.2056 256.418 47.2583 256.418 47.6378C256.418 48.0173 256.324 48.07 256.126 48.07H245.499C245.31 48.07 245.206 48.0173 245.206 47.6378C245.206 47.2583 245.3 47.2056 245.499 47.2056H247.808C248.529 47.2056 248.623 47.1107 248.623 46.3833V33.5746C248.623 29.6951 247.369 27.7026 244.83 27.7026C242.615 27.7026 240.838 29.8322 240.211 32.6047V46.3833C240.211 47.1107 240.305 47.2056 241.026 47.2056H242.949C243.137 47.2056 243.242 47.2583 243.242 47.6378C243.242 48.0173 243.147 48.07 242.949 48.07H232.082C231.894 48.07 231.789 48.0173 231.789 47.6378C231.789 47.2583 231.883 47.2056 232.082 47.2056L232.092 47.2161Z" fill="white"/>
<path d="M279.908 36.437C281.736 36.437 283.032 36.8692 284.088 37.3542V32.6524C284.088 28.9626 282.353 27.5078 280.002 27.5078C277.651 27.5078 276.397 28.5304 276.397 29.5003C276.397 30.6177 277.306 31.05 277.306 32.3572C277.306 33.3798 276.533 34.2442 275.331 34.2442C274.129 34.2442 273.262 33.0319 273.262 31.6298C273.262 29.2578 276.094 26.6328 279.991 26.6328C285.853 26.6328 288.737 29.4476 288.737 34.2969V45.4083C288.737 46.958 289.312 47.443 290.273 47.443C290.848 47.443 291.621 47.2005 292.102 46.9053C292.342 46.7577 292.771 47.4851 292.583 47.6327C291.475 48.3074 290.368 48.6553 289.03 48.6553C286.919 48.6553 285.091 47.0529 284.464 45.071H284.276C283.502 47.3481 281.486 48.6553 278.936 48.6553C274.077 48.6553 271.914 45.8933 271.914 42.5936C271.914 38.6614 274.798 36.437 279.897 36.437H279.908ZM280.336 47.5906C282.259 47.5906 283.795 45.7035 284.088 42.4987V38.2819C283.272 37.7442 282.071 37.2593 280.817 37.2593C278.466 37.2593 276.919 38.5665 276.919 42.5936C276.919 46.3255 278.121 47.5906 280.336 47.5906Z" fill="white"/>
<path d="M294.899 47.2134H297.449C298.17 47.2134 298.264 47.1185 298.264 46.3911V28.9228C298.264 28.1954 298.17 28.1005 297.449 28.1005H295.474C295.286 28.1005 295.181 28.0478 295.181 27.6683C295.181 27.2888 295.275 27.2361 295.474 27.2361H302.109C302.83 27.2361 302.924 27.3309 302.924 28.0584C302.924 28.733 302.83 30.0508 302.736 31.0207L302.883 31.1156C303.698 28.7858 305.62 26.6562 309.372 26.6562C314.231 26.6562 316.916 29.3234 316.916 34.1728V46.3911C316.916 47.1185 317.01 47.2134 317.731 47.2134H319.706C319.894 47.2134 319.999 47.2661 319.999 47.6456C319.999 48.0251 319.905 48.0778 319.706 48.0778H309.131C308.943 48.0778 308.839 48.0251 308.839 47.6456C308.839 47.2661 308.933 47.2134 309.131 47.2134H311.347C312.068 47.2134 312.162 47.1185 312.162 46.3911V33.6351C312.162 29.2707 310.333 27.721 307.93 27.721C305.526 27.721 303.551 29.9559 303.029 33.2556V46.4016C303.029 47.1291 303.123 47.2239 303.844 47.2239H306.059C306.247 47.2239 306.352 47.2766 306.352 47.6562C306.352 48.0357 306.258 48.0884 306.059 48.0884H294.91C294.722 48.0884 294.617 48.0357 294.617 47.6562C294.617 47.2766 294.711 47.2239 294.91 47.2239L294.899 47.2134Z" fill="white"/>
</g>
<defs>
<clipPath id="clip0_587_217">
<rect width="320" height="58.4772" fill="white" transform="translate(0 0.757812)"/>
</clipPath>
</defs>
</svg>
